<?xml version="1.0" encoding="UTF-8"?>
<!--
Copyright (C) 2026 Gerald Hofbauer <info@geraldhofbauer.net>

This program is free software: you can redistribute it and/or modify
it under the terms of the GNU Affero General Public License as
published by the Free Software Foundation, either version 3 of the
License, or (at your option) any later version.

This program is distributed in the hope that it will be useful,
but WITHOUT ANY WARRANTY; without even the implied warranty of
MERCHANTABILITY or FITNESS FOR A PARTICULAR PURPOSE.  See the
GNU Affero General Public License for more details.

You should have received a copy of the GNU Affero General Public License
along with this program.  If not, see <https://www.gnu.org/licenses/>.
-->
<svg xmlns="http://www.w3.org/2000/svg"
     viewBox="0 0 1200 300"
     width="1200" height="300"
     overflow="hidden">
  <defs>
    <filter id="glow" x="-20%" y="-20%" width="140%" height="140%">
      <feGaussianBlur stdDeviation="3" result="blur"/>
      <feMerge>
        <feMergeNode in="blur"/>
        <feMergeNode in="SourceGraphic"/>
      </feMerge>
    </filter>
    <filter id="glow-strong" x="-20%" y="-20%" width="140%" height="140%">
      <feGaussianBlur stdDeviation="4" result="blur"/>
      <feMerge>
        <feMergeNode in="blur"/>
        <feMergeNode in="SourceGraphic"/>
      </feMerge>
    </filter>
    <pattern id="scanlines" x="0" y="0" width="1" height="4" patternUnits="userSpaceOnUse">
      <rect y="0" width="1200" height="1" fill="#00ff41" opacity="0.025"/>
    </pattern>
    <pattern id="dots" x="0" y="0" width="24" height="24" patternUnits="userSpaceOnUse">
      <circle cx="12" cy="12" r="0.9" fill="#00ff41" opacity="0.10"/>
    </pattern>
    <!-- Bubble dome gradient (reused by foreground icon) -->
    <radialGradient id="bubble-fill" cx="36%" cy="30%" r="65%" gradientUnits="objectBoundingBox">
      <stop offset="0%"   stop-color="#00ff41" stop-opacity="0.16"/>
      <stop offset="55%"  stop-color="#00ff41" stop-opacity="0.04"/>
      <stop offset="100%" stop-color="#00ff41" stop-opacity="0.01"/>
    </radialGradient>
  </defs>

  <!-- ── Background ─────────────────────────────────────────────────── -->
  <rect width="1200" height="300" fill="#0a0a0a"/>
  <rect width="1200" height="300" fill="url(#dots)"/>
  <rect width="1200" height="300" fill="url(#scanlines)"/>
  <rect x="5" y="5" width="1190" height="290"
        fill="none" stroke="#00ff41" stroke-width="1"
        stroke-dasharray="6 3" opacity="0.22"/>

  <!-- ── Background water-bubble cluster ──────────────────────────── -->
  <!-- Shared water-bubble path (256×256 coordinate space, visual center ≈128,129):
       M 128,44 C 181,42 220,83 215,131 C 210,178 172,216 128,213
               C 84,216 42,178 42,131 C 42,82 75,46 128,44 Z        -->

  <!-- Bubble A: large, left-top -->
  <g transform="translate(-15,-7) scale(0.9)" opacity="0.11">
    <path d="M 128,44 C 181,42 220,83 215,131 C 210,178 172,216 128,213 C 84,216 42,178 42,131 C 42,82 75,46 128,44 Z"
          fill="rgba(0,255,65,0.05)" stroke="#00ff41" stroke-width="2.5"/>
    <text x="128" y="147" font-family="'Courier New', Courier, monospace" font-size="54"
          font-weight="bold" fill="#00ff41" text-anchor="middle">&gt;&#32;<tspan>_<animate attributeName="opacity" values="1;0;1" keyTimes="0;0.5;1" dur="1.3s" repeatCount="indefinite" calcMode="discrete"/></tspan></text>
  </g>

  <!-- Bubble B: medium, left-bottom (partially off-screen) -->
  <g transform="translate(10,164) scale(0.55)" opacity="0.08">
    <path d="M 128,44 C 181,42 220,83 215,131 C 210,178 172,216 128,213 C 84,216 42,178 42,131 C 42,82 75,46 128,44 Z"
          fill="rgba(0,255,65,0.05)" stroke="#00ff41" stroke-width="2.5"/>
    <text x="128" y="147" font-family="'Courier New', Courier, monospace" font-size="54"
          font-weight="bold" fill="#00ff41" text-anchor="middle">&gt; ·</text>
  </g>

  <!-- Bubble C: large, right-top (partially off-screen right) -->
  <g transform="translate(986,-11) scale(0.85)" opacity="0.10">
    <path d="M 128,44 C 181,42 220,83 215,131 C 210,178 172,216 128,213 C 84,216 42,178 42,131 C 42,82 75,46 128,44 Z"
          fill="rgba(0,255,65,0.05)" stroke="#00ff41" stroke-width="2.5"/>
    <text x="128" y="147" font-family="'Courier New', Courier, monospace" font-size="54"
          font-weight="bold" fill="#00ff41" text-anchor="middle">&gt; //</text>
  </g>

  <!-- Bubble D: medium, right-bottom (partially off-screen) -->
  <g transform="translate(1020,194) scale(0.55)" opacity="0.07">
    <path d="M 128,44 C 181,42 220,83 215,131 C 210,178 172,216 128,213 C 84,216 42,178 42,131 C 42,82 75,46 128,44 Z"
          fill="rgba(0,255,65,0.04)" stroke="#00ff41" stroke-width="2.5"/>
  </g>

  <!-- Bubble E: small, top-center (partially above fold) -->
  <g transform="translate(463,-61) scale(0.60)" opacity="0.06">
    <path d="M 128,44 C 181,42 220,83 215,131 C 210,178 172,216 128,213 C 84,216 42,178 42,131 C 42,82 75,46 128,44 Z"
          fill="rgba(0,255,65,0.04)" stroke="#00ff41" stroke-width="2.5"/>
  </g>

  <!-- Bubble F: small, far left -->
  <g transform="translate(2,119) scale(0.45)" opacity="0.09">
    <path d="M 128,44 C 181,42 220,83 215,131 C 210,178 172,216 128,213 C 84,216 42,178 42,131 C 42,82 75,46 128,44 Z"
          fill="rgba(0,255,65,0.05)" stroke="#00ff41" stroke-width="2.5"/>
    <text x="128" y="147" font-family="'Courier New', Courier, monospace" font-size="54"
          font-weight="bold" fill="#00ff41" text-anchor="middle">&gt; ●</text>
  </g>

  <!-- Bubble G: tiny, bottom-right (partially off-screen bottom) -->
  <g transform="translate(686,214) scale(0.50)" opacity="0.06">
    <path d="M 128,44 C 181,42 220,83 215,131 C 210,178 172,216 128,213 C 84,216 42,178 42,131 C 42,82 75,46 128,44 Z"
          fill="rgba(0,255,65,0.04)" stroke="#00ff41" stroke-width="2.5"/>
  </g>

  <!-- Bubble H: small, right-center -->
  <g transform="translate(951,91) scale(0.38)" opacity="0.08">
    <path d="M 128,44 C 181,42 220,83 215,131 C 210,178 172,216 128,213 C 84,216 42,178 42,131 C 42,82 75,46 128,44 Z"
          fill="rgba(0,255,65,0.05)" stroke="#00ff41" stroke-width="2.5"/>
    <text x="128" y="147" font-family="'Courier New', Courier, monospace" font-size="54"
          font-weight="bold" fill="#00ff41" text-anchor="middle">&gt;&#32;<tspan>_<animate attributeName="opacity" values="1;0;1" keyTimes="0;0.5;1" dur="0.9s" repeatCount="indefinite" calcMode="discrete"/></tspan></text>
  </g>

  <!-- Bubble I: tiny, upper-right area -->
  <g transform="translate(1026,37) scale(0.42)" opacity="0.07">
    <path d="M 128,44 C 181,42 220,83 215,131 C 210,178 172,216 128,213 C 84,216 42,178 42,131 C 42,82 75,46 128,44 Z"
          fill="rgba(0,255,65,0.04)" stroke="#00ff41" stroke-width="2.5"/>
    <text x="128" y="147" font-family="'Courier New', Courier, monospace" font-size="54"
          font-weight="bold" fill="#00ff41" text-anchor="middle">&gt; ·</text>
  </g>

  <!-- ── Foreground: [water bubble icon] [PASSBUBBLE] ────────────── -->
  <!-- Combined width ≈559px centered at x=600 → left edge at x≈321 -->
  <!-- Icon: scale=0.44, bubble left (42) → x≈321, center y=150     -->
  <!-- transform: translate(303,93) scale(0.44)                       -->
  <g transform="translate(303,93) scale(0.44)" filter="url(#glow)">
    <path d="M 128,44 C 181,42 220,83 215,131 C 210,178 172,216 128,213 C 84,216 42,178 42,131 C 42,82 75,46 128,44 Z"
          fill="url(#bubble-fill)"
          stroke="#00ff41"
          stroke-width="3"/>
    <!-- Specular highlight on foreground icon -->
    <path d="M 68,108 C 74,82 96,70 118,80"
          fill="none" stroke="#00ff41" stroke-width="2"
          stroke-linecap="round" opacity="0.60"/>
    <!-- "> _" in foreground icon -->
    <text x="128" y="147"
          font-family="'Courier New', Courier, 'Lucida Console', monospace"
          font-size="54" font-weight="bold" fill="#00ff41"
          text-anchor="middle">&gt;&#32;<tspan>_<animate attributeName="opacity" values="1;0;1" keyTimes="0;0.5;1" dur="1s" repeatCount="indefinite" calcMode="discrete"/></tspan></text>
  </g>

  <!-- "PASSBUBBLE" wordmark -->
  <!-- x=418, baseline y=174 → visual center at y≈150 for 68px font -->
  <text x="418" y="174"
        font-family="'Courier New', Courier, 'Lucida Console', monospace"
        font-size="68"
        font-weight="bold"
        fill="#00ff41"
        letter-spacing="6"
        filter="url(#glow-strong)">PASSBUBBLE</text>

  <!-- Separator line -->
  <line x1="321" y1="205" x2="881" y2="205"
        stroke="#00ff41" stroke-width="0.6" opacity="0.30"/>

  <!-- Tagline -->
  <text x="600" y="228"
        font-family="'Courier New', Courier, 'Lucida Console', monospace"
        font-size="14"
        fill="#00ff41"
        text-anchor="middle"
        opacity="0.55">// e2e encrypted · self-hosted · post-quantum</text>
</svg>
