<?xml version="1.0" encoding="UTF-8"?>
<!-- Passbubble Liquid Glass icon — LAYER 3 (circuit traces, TRANSPARENT).
     Four traces + chip pads reaching the icon edges. NOTE: for a strict
     Liquid Glass icon these touch the bezel; pull them inward (or hide this
     layer) in Icon Composer if the system mask clips them awkwardly. -->
<svg xmlns="http://www.w3.org/2000/svg" viewBox="0 0 256 256" width="256" height="256">
  <!-- top -->
  <line x1="128" y1="44"  x2="128" y2="18"  stroke="#00ff41" stroke-width="1.5" opacity="0.70"/>
  <line x1="128" y1="18"  x2="154" y2="18"  stroke="#00ff41" stroke-width="1.5" opacity="0.50"/>
  <rect x="124" y="14" width="8" height="8" fill="#00ff41" opacity="0.90"/>
  <rect x="150" y="14" width="8" height="8" fill="#00ff41" opacity="0.50"/>
  <!-- right -->
  <line x1="215" y1="131" x2="244" y2="131" stroke="#00ff41" stroke-width="1.5" opacity="0.70"/>
  <line x1="244" y1="131" x2="244" y2="107" stroke="#00ff41" stroke-width="1.5" opacity="0.50"/>
  <rect x="240" y="127" width="8" height="8" fill="#00ff41" opacity="0.90"/>
  <rect x="240" y="103" width="8" height="8" fill="#00ff41" opacity="0.50"/>
  <!-- bottom -->
  <line x1="128" y1="213" x2="128" y2="242" stroke="#00ff41" stroke-width="1.5" opacity="0.70"/>
  <line x1="128" y1="242" x2="102" y2="242" stroke="#00ff41" stroke-width="1.5" opacity="0.50"/>
  <rect x="124" y="238" width="8" height="8" fill="#00ff41" opacity="0.90"/>
  <rect x="98"  y="238" width="8" height="8" fill="#00ff41" opacity="0.50"/>
  <!-- left -->
  <line x1="42"  y1="131" x2="14"  y2="131" stroke="#00ff41" stroke-width="1.5" opacity="0.70"/>
  <line x1="14"  y1="131" x2="14"  y2="157" stroke="#00ff41" stroke-width="1.5" opacity="0.50"/>
  <rect x="10"  y="127" width="8" height="8" fill="#00ff41" opacity="0.90"/>
  <rect x="10"  y="153" width="8" height="8" fill="#00ff41" opacity="0.50"/>
</svg>
